<svg width="386" height="48" viewBox="0 0 386 48" fill="none" xmlns="http://www.w3.org/2000/svg">
<path d="M0 8C0 3.58172 3.58172 0 8 0H378C382.418 0 386 3.58172 386 8V40C386 44.4183 382.418 48 378 48H7.99999C3.58171 48 0 44.4183 0 40V8Z" fill="#0546B7"/>
<path fill-rule="evenodd" clip-rule="evenodd" d="M105 14.3447V21.9309L83 30.8965L105 14.3447Z" fill="#2FE9FF"/>
<path fill-rule="evenodd" clip-rule="evenodd" d="M100.875 14V27.1034C100.875 30.9123 97.797 34 94 34C90.203 34 87.125 30.9123 87.125 27.1034V21.5862L91.25 19.3103V27.1034C91.25 28.4365 92.3273 29.5172 93.6562 29.5172C94.9852 29.5172 96.0625 28.4365 96.0625 27.1034V16.6552L100.875 14Z" fill="white"/>
<path d="M115.641 30V18.5781H118.062V28H122.695V30H115.641ZM132.438 25.6172C132.438 26.3464 132.339 26.9922 132.141 27.5547C131.948 28.1172 131.664 28.5938 131.289 28.9844C130.919 29.3698 130.471 29.6615 129.945 29.8594C129.424 30.0573 128.836 30.1562 128.18 30.1562C127.565 30.1562 127 30.0573 126.484 29.8594C125.974 29.6615 125.529 29.3698 125.148 28.9844C124.773 28.5938 124.482 28.1172 124.273 27.5547C124.07 26.9922 123.969 26.3464 123.969 25.6172C123.969 24.6484 124.141 23.8281 124.484 23.1562C124.828 22.4844 125.318 21.974 125.953 21.625C126.589 21.276 127.346 21.1016 128.227 21.1016C129.044 21.1016 129.768 21.276 130.398 21.625C131.034 21.974 131.531 22.4844 131.891 23.1562C132.255 23.8281 132.438 24.6484 132.438 25.6172ZM126.398 25.6172C126.398 26.1901 126.461 26.6719 126.586 27.0625C126.711 27.4531 126.906 27.7474 127.172 27.9453C127.438 28.1432 127.784 28.2422 128.211 28.2422C128.633 28.2422 128.974 28.1432 129.234 27.9453C129.5 27.7474 129.693 27.4531 129.812 27.0625C129.938 26.6719 130 26.1901 130 25.6172C130 25.0391 129.938 24.5599 129.812 24.1797C129.693 23.7943 129.5 23.5052 129.234 23.3125C128.969 23.1198 128.622 23.0234 128.195 23.0234C127.565 23.0234 127.107 23.2396 126.82 23.6719C126.539 24.1042 126.398 24.7526 126.398 25.6172ZM136.961 33.8438C135.742 33.8438 134.81 33.6302 134.164 33.2031C133.523 32.7812 133.203 32.1875 133.203 31.4219C133.203 30.8958 133.367 30.4557 133.695 30.1016C134.023 29.7474 134.505 29.4948 135.141 29.3438C134.896 29.2396 134.682 29.0703 134.5 28.8359C134.318 28.5964 134.227 28.3438 134.227 28.0781C134.227 27.7448 134.323 27.4688 134.516 27.25C134.708 27.026 134.987 26.8073 135.352 26.5938C134.893 26.3958 134.529 26.0781 134.258 25.6406C133.992 25.2031 133.859 24.6875 133.859 24.0938C133.859 23.4583 133.997 22.9193 134.273 22.4766C134.555 22.0286 134.961 21.6875 135.492 21.4531C136.029 21.2188 136.68 21.1016 137.445 21.1016C137.607 21.1016 137.794 21.112 138.008 21.1328C138.221 21.1536 138.417 21.1771 138.594 21.2031C138.776 21.2292 138.898 21.25 138.961 21.2656H142.008V22.4766L140.641 22.8281C140.766 23.0208 140.859 23.2266 140.922 23.4453C140.984 23.6641 141.016 23.8958 141.016 24.1406C141.016 25.0781 140.688 25.8099 140.031 26.3359C139.38 26.8568 138.474 27.1172 137.312 27.1172C137.036 27.1016 136.776 27.0807 136.531 27.0547C136.411 27.1484 136.32 27.2474 136.258 27.3516C136.195 27.4557 136.164 27.5651 136.164 27.6797C136.164 27.7943 136.211 27.8906 136.305 27.9688C136.404 28.0417 136.549 28.099 136.742 28.1406C136.94 28.1771 137.185 28.1953 137.477 28.1953H138.961C139.919 28.1953 140.648 28.401 141.148 28.8125C141.654 29.224 141.906 29.8281 141.906 30.625C141.906 31.6458 141.479 32.4375 140.625 33C139.776 33.5625 138.555 33.8438 136.961 33.8438ZM137.062 32.2891C137.63 32.2891 138.117 32.2344 138.523 32.125C138.935 32.0208 139.25 31.8698 139.469 31.6719C139.688 31.4792 139.797 31.2474 139.797 30.9766C139.797 30.7578 139.732 30.5833 139.602 30.4531C139.477 30.3281 139.284 30.2396 139.023 30.1875C138.768 30.1354 138.44 30.1094 138.039 30.1094H136.805C136.513 30.1094 136.25 30.1562 136.016 30.25C135.786 30.3438 135.604 30.474 135.469 30.6406C135.333 30.8125 135.266 31.0104 135.266 31.2344C135.266 31.5625 135.422 31.8203 135.734 32.0078C136.052 32.1953 136.495 32.2891 137.062 32.2891ZM137.445 25.6641C137.893 25.6641 138.221 25.526 138.43 25.25C138.638 24.974 138.742 24.599 138.742 24.125C138.742 23.599 138.633 23.2057 138.414 22.9453C138.201 22.6797 137.878 22.5469 137.445 22.5469C137.008 22.5469 136.68 22.6797 136.461 22.9453C136.242 23.2057 136.133 23.599 136.133 24.125C136.133 24.599 136.24 24.974 136.453 25.25C136.672 25.526 137.003 25.6641 137.445 25.6641ZM145.836 21.2656V30H143.453V21.2656H145.836ZM144.648 17.8438C145.003 17.8438 145.307 17.9271 145.562 18.0938C145.818 18.2552 145.945 18.5599 145.945 19.0078C145.945 19.4505 145.818 19.7578 145.562 19.9297C145.307 20.0964 145.003 20.1797 144.648 20.1797C144.289 20.1797 143.982 20.0964 143.727 19.9297C143.477 19.7578 143.352 19.4505 143.352 19.0078C143.352 18.5599 143.477 18.2552 143.727 18.0938C143.982 17.9271 144.289 17.8438 144.648 17.8438ZM153.305 21.1016C154.237 21.1016 154.987 21.3568 155.555 21.8672C156.122 22.3724 156.406 23.1849 156.406 24.3047V30H154.023V24.8984C154.023 24.2734 153.909 23.8021 153.68 23.4844C153.456 23.1667 153.102 23.0078 152.617 23.0078C151.888 23.0078 151.391 23.2552 151.125 23.75C150.859 24.2448 150.727 24.9583 150.727 25.8906V30H148.344V21.2656H150.164L150.484 22.3828H150.617C150.805 22.0807 151.036 21.8359 151.312 21.6484C151.594 21.4609 151.904 21.3229 152.242 21.2344C152.586 21.1458 152.94 21.1016 153.305 21.1016ZM170.195 30L169.523 26.9453C169.487 26.763 169.427 26.4948 169.344 26.1406C169.26 25.7812 169.169 25.3984 169.07 24.9922C168.977 24.5807 168.888 24.2005 168.805 23.8516C168.727 23.5026 168.669 23.2474 168.633 23.0859H168.562C168.526 23.2474 168.469 23.5026 168.391 23.8516C168.312 24.2005 168.224 24.5807 168.125 24.9922C168.031 25.4036 167.943 25.7917 167.859 26.1562C167.776 26.5156 167.714 26.7891 167.672 26.9766L166.969 30H164.406L161.922 21.2656H164.297L165.305 25.1328C165.372 25.4036 165.438 25.7266 165.5 26.1016C165.562 26.4714 165.617 26.8307 165.664 27.1797C165.716 27.5234 165.755 27.7969 165.781 28H165.844C165.854 27.849 165.875 27.6484 165.906 27.3984C165.943 27.1484 165.982 26.8906 166.023 26.625C166.07 26.3542 166.112 26.112 166.148 25.8984C166.19 25.6797 166.221 25.5312 166.242 25.4531L167.32 21.2656H169.945L170.969 25.4531C171.005 25.6042 171.052 25.8438 171.109 26.1719C171.172 26.5 171.227 26.8385 171.273 27.1875C171.32 27.5312 171.346 27.8021 171.352 28H171.414C171.435 27.8229 171.471 27.5599 171.523 27.2109C171.576 26.862 171.635 26.4974 171.703 26.1172C171.776 25.7318 171.849 25.4036 171.922 25.1328L172.969 21.2656H175.305L172.789 30H170.195ZM179.102 21.2656V30H176.719V21.2656H179.102ZM177.914 17.8438C178.268 17.8438 178.573 17.9271 178.828 18.0938C179.083 18.2552 179.211 18.5599 179.211 19.0078C179.211 19.4505 179.083 19.7578 178.828 19.9297C178.573 20.0964 178.268 20.1797 177.914 20.1797C177.555 20.1797 177.247 20.0964 176.992 19.9297C176.742 19.7578 176.617 19.4505 176.617 19.0078C176.617 18.5599 176.742 18.2552 176.992 18.0938C177.247 17.9271 177.555 17.8438 177.914 17.8438ZM185.289 28.2578C185.549 28.2578 185.802 28.2318 186.047 28.1797C186.297 28.1276 186.544 28.0625 186.789 27.9844V29.7578C186.534 29.8724 186.216 29.9661 185.836 30.0391C185.461 30.1172 185.049 30.1562 184.602 30.1562C184.081 30.1562 183.612 30.0729 183.195 29.9062C182.784 29.7344 182.458 29.4401 182.219 29.0234C181.984 28.6016 181.867 28.0156 181.867 27.2656V23.0547H180.727V22.0469L182.039 21.25L182.727 19.4062H184.25V21.2656H186.695V23.0547H184.25V27.2656C184.25 27.599 184.344 27.849 184.531 28.0156C184.724 28.1771 184.977 28.2578 185.289 28.2578ZM190.945 17.8438V20.3203C190.945 20.7526 190.93 21.1641 190.898 21.5547C190.872 21.9453 190.852 22.2214 190.836 22.3828H190.961C191.148 22.0807 191.37 21.8359 191.625 21.6484C191.885 21.4609 192.172 21.3229 192.484 21.2344C192.797 21.1458 193.133 21.1016 193.492 21.1016C194.122 21.1016 194.672 21.2135 195.141 21.4375C195.609 21.6562 195.974 22.0026 196.234 22.4766C196.495 22.9453 196.625 23.5547 196.625 24.3047V30H194.242V24.8984C194.242 24.2734 194.128 23.8021 193.898 23.4844C193.669 23.1667 193.315 23.0078 192.836 23.0078C192.357 23.0078 191.979 23.1198 191.703 23.3438C191.427 23.5625 191.232 23.888 191.117 24.3203C191.003 24.7474 190.945 25.2708 190.945 25.8906V30H188.562V17.8438H190.945ZM212.719 18.5781V25.9688C212.719 26.7552 212.544 27.4661 212.195 28.1016C211.852 28.7318 211.328 29.2318 210.625 29.6016C209.927 29.9714 209.047 30.1562 207.984 30.1562C206.474 30.1562 205.323 29.7708 204.531 29C203.74 28.2292 203.344 27.2083 203.344 25.9375V18.5781H205.758V25.5703C205.758 26.513 205.951 27.1745 206.336 27.5547C206.721 27.9349 207.292 28.125 208.047 28.125C208.578 28.125 209.008 28.0339 209.336 27.8516C209.669 27.6693 209.914 27.388 210.07 27.0078C210.227 26.6276 210.305 26.1432 210.305 25.5547V18.5781H212.719ZM220.289 21.1016C221.221 21.1016 221.971 21.3568 222.539 21.8672C223.107 22.3724 223.391 23.1849 223.391 24.3047V30H221.008V24.8984C221.008 24.2734 220.893 23.8021 220.664 23.4844C220.44 23.1667 220.086 23.0078 219.602 23.0078C218.872 23.0078 218.375 23.2552 218.109 23.75C217.844 24.2448 217.711 24.9583 217.711 25.8906V30H215.328V21.2656H217.148L217.469 22.3828H217.602C217.789 22.0807 218.021 21.8359 218.297 21.6484C218.578 21.4609 218.888 21.3229 219.227 21.2344C219.57 21.1458 219.924 21.1016 220.289 21.1016ZM231.938 27.4062C231.938 28 231.797 28.5026 231.516 28.9141C231.24 29.3203 230.826 29.6302 230.273 29.8438C229.721 30.0521 229.034 30.1562 228.211 30.1562C227.602 30.1562 227.078 30.1172 226.641 30.0391C226.208 29.9609 225.771 29.8307 225.328 29.6484V27.6797C225.802 27.8932 226.31 28.0703 226.852 28.2109C227.398 28.3464 227.878 28.4141 228.289 28.4141C228.753 28.4141 229.083 28.3464 229.281 28.2109C229.484 28.0703 229.586 27.888 229.586 27.6641C229.586 27.5182 229.544 27.388 229.461 27.2734C229.383 27.1536 229.211 27.0208 228.945 26.875C228.68 26.724 228.263 26.5286 227.695 26.2891C227.148 26.0599 226.698 25.8281 226.344 25.5938C225.995 25.3594 225.734 25.0833 225.562 24.7656C225.396 24.4427 225.312 24.0339 225.312 23.5391C225.312 22.7318 225.625 22.125 226.25 21.7188C226.88 21.3073 227.721 21.1016 228.773 21.1016C229.315 21.1016 229.831 21.1562 230.32 21.2656C230.815 21.375 231.323 21.5495 231.844 21.7891L231.125 23.5078C230.693 23.3203 230.284 23.1667 229.898 23.0469C229.518 22.9271 229.13 22.8672 228.734 22.8672C228.385 22.8672 228.122 22.9141 227.945 23.0078C227.768 23.1016 227.68 23.2448 227.68 23.4375C227.68 23.5781 227.724 23.7031 227.812 23.8125C227.906 23.9219 228.083 24.0443 228.344 24.1797C228.609 24.3099 228.997 24.4792 229.508 24.6875C230.003 24.8906 230.432 25.1042 230.797 25.3281C231.161 25.5469 231.443 25.8203 231.641 26.1484C231.839 26.4714 231.938 26.8906 231.938 27.4062ZM237.477 28.2578C237.737 28.2578 237.99 28.2318 238.234 28.1797C238.484 28.1276 238.732 28.0625 238.977 27.9844V29.7578C238.721 29.8724 238.404 29.9661 238.023 30.0391C237.648 30.1172 237.237 30.1562 236.789 30.1562C236.268 30.1562 235.799 30.0729 235.383 29.9062C234.971 29.7344 234.646 29.4401 234.406 29.0234C234.172 28.6016 234.055 28.0156 234.055 27.2656V23.0547H232.914V22.0469L234.227 21.25L234.914 19.4062H236.438V21.2656H238.883V23.0547H236.438V27.2656C236.438 27.599 236.531 27.849 236.719 28.0156C236.911 28.1771 237.164 28.2578 237.477 28.2578ZM248.688 25.6172C248.688 26.3464 248.589 26.9922 248.391 27.5547C248.198 28.1172 247.914 28.5938 247.539 28.9844C247.169 29.3698 246.721 29.6615 246.195 29.8594C245.674 30.0573 245.086 30.1562 244.43 30.1562C243.815 30.1562 243.25 30.0573 242.734 29.8594C242.224 29.6615 241.779 29.3698 241.398 28.9844C241.023 28.5938 240.732 28.1172 240.523 27.5547C240.32 26.9922 240.219 26.3464 240.219 25.6172C240.219 24.6484 240.391 23.8281 240.734 23.1562C241.078 22.4844 241.568 21.974 242.203 21.625C242.839 21.276 243.596 21.1016 244.477 21.1016C245.294 21.1016 246.018 21.276 246.648 21.625C247.284 21.974 247.781 22.4844 248.141 23.1562C248.505 23.8281 248.688 24.6484 248.688 25.6172ZM242.648 25.6172C242.648 26.1901 242.711 26.6719 242.836 27.0625C242.961 27.4531 243.156 27.7474 243.422 27.9453C243.688 28.1432 244.034 28.2422 244.461 28.2422C244.883 28.2422 245.224 28.1432 245.484 27.9453C245.75 27.7474 245.943 27.4531 246.062 27.0625C246.188 26.6719 246.25 26.1901 246.25 25.6172C246.25 25.0391 246.188 24.5599 246.062 24.1797C245.943 23.7943 245.75 23.5052 245.484 23.3125C245.219 23.1198 244.872 23.0234 244.445 23.0234C243.815 23.0234 243.357 23.2396 243.07 23.6719C242.789 24.1042 242.648 24.7526 242.648 25.6172ZM255.516 21.1016C256.5 21.1016 257.294 21.4844 257.898 22.25C258.508 23.0156 258.812 24.138 258.812 25.6172C258.812 26.6068 258.669 27.4401 258.383 28.1172C258.096 28.7891 257.701 29.2969 257.195 29.6406C256.69 29.9844 256.109 30.1562 255.453 30.1562C255.031 30.1562 254.669 30.1042 254.367 30C254.065 29.8906 253.807 29.7526 253.594 29.5859C253.38 29.4141 253.195 29.2318 253.039 29.0391H252.914C252.956 29.2474 252.987 29.4609 253.008 29.6797C253.029 29.8984 253.039 30.112 253.039 30.3203V33.8438H250.656V21.2656H252.594L252.93 22.3984H253.039C253.195 22.1641 253.385 21.9479 253.609 21.75C253.833 21.5521 254.102 21.3958 254.414 21.2812C254.732 21.1615 255.099 21.1016 255.516 21.1016ZM254.75 23.0078C254.333 23.0078 254.003 23.0938 253.758 23.2656C253.513 23.4375 253.333 23.6953 253.219 24.0391C253.109 24.3828 253.049 24.8177 253.039 25.3438V25.6016C253.039 26.1641 253.091 26.6406 253.195 27.0312C253.305 27.4219 253.484 27.7188 253.734 27.9219C253.99 28.125 254.339 28.2266 254.781 28.2266C255.146 28.2266 255.445 28.125 255.68 27.9219C255.914 27.7188 256.089 27.4219 256.203 27.0312C256.323 26.6354 256.383 26.1536 256.383 25.5859C256.383 24.7318 256.25 24.0885 255.984 23.6562C255.719 23.224 255.307 23.0078 254.75 23.0078ZM265.641 21.1016C266.625 21.1016 267.419 21.4844 268.023 22.25C268.633 23.0156 268.938 24.138 268.938 25.6172C268.938 26.6068 268.794 27.4401 268.508 28.1172C268.221 28.7891 267.826 29.2969 267.32 29.6406C266.815 29.9844 266.234 30.1562 265.578 30.1562C265.156 30.1562 264.794 30.1042 264.492 30C264.19 29.8906 263.932 29.7526 263.719 29.5859C263.505 29.4141 263.32 29.2318 263.164 29.0391H263.039C263.081 29.2474 263.112 29.4609 263.133 29.6797C263.154 29.8984 263.164 30.112 263.164 30.3203V33.8438H260.781V21.2656H262.719L263.055 22.3984H263.164C263.32 22.1641 263.51 21.9479 263.734 21.75C263.958 21.5521 264.227 21.3958 264.539 21.2812C264.857 21.1615 265.224 21.1016 265.641 21.1016ZM264.875 23.0078C264.458 23.0078 264.128 23.0938 263.883 23.2656C263.638 23.4375 263.458 23.6953 263.344 24.0391C263.234 24.3828 263.174 24.8177 263.164 25.3438V25.6016C263.164 26.1641 263.216 26.6406 263.32 27.0312C263.43 27.4219 263.609 27.7188 263.859 27.9219C264.115 28.125 264.464 28.2266 264.906 28.2266C265.271 28.2266 265.57 28.125 265.805 27.9219C266.039 27.7188 266.214 27.4219 266.328 27.0312C266.448 26.6354 266.508 26.1536 266.508 25.5859C266.508 24.7318 266.375 24.0885 266.109 23.6562C265.844 23.224 265.432 23.0078 264.875 23.0078ZM274.484 21.0859C275.656 21.0859 276.555 21.3411 277.18 21.8516C277.805 22.362 278.117 23.138 278.117 24.1797V30H276.453L275.992 28.8125H275.93C275.68 29.125 275.424 29.3802 275.164 29.5781C274.904 29.776 274.604 29.9219 274.266 30.0156C273.927 30.1094 273.516 30.1562 273.031 30.1562C272.516 30.1562 272.052 30.0573 271.641 29.8594C271.234 29.6615 270.914 29.3594 270.68 28.9531C270.445 28.5417 270.328 28.0208 270.328 27.3906C270.328 26.4635 270.654 25.7812 271.305 25.3438C271.956 24.901 272.932 24.6562 274.234 24.6094L275.75 24.5625V24.1797C275.75 23.7214 275.63 23.3854 275.391 23.1719C275.151 22.9583 274.818 22.8516 274.391 22.8516C273.969 22.8516 273.555 22.9115 273.148 23.0312C272.742 23.151 272.336 23.3021 271.93 23.4844L271.141 21.875C271.604 21.6302 272.122 21.4375 272.695 21.2969C273.273 21.1562 273.87 21.0859 274.484 21.0859ZM275.75 25.9531L274.828 25.9844C274.057 26.0052 273.521 26.1432 273.219 26.3984C272.922 26.6536 272.773 26.9896 272.773 27.4062C272.773 27.7708 272.88 28.0312 273.094 28.1875C273.307 28.3385 273.586 28.4141 273.93 28.4141C274.44 28.4141 274.87 28.263 275.219 27.9609C275.573 27.6589 275.75 27.2292 275.75 26.6719V25.9531ZM282.961 17.8438V20.6719C282.961 21 282.951 21.3255 282.93 21.6484C282.914 21.9714 282.893 22.2214 282.867 22.3984H282.961C283.19 22.0391 283.503 21.7344 283.898 21.4844C284.294 21.2292 284.807 21.1016 285.438 21.1016C286.417 21.1016 287.211 21.4844 287.82 22.25C288.43 23.0156 288.734 24.138 288.734 25.6172C288.734 26.612 288.594 27.4479 288.312 28.125C288.031 28.7969 287.638 29.3047 287.133 29.6484C286.628 29.987 286.042 30.1562 285.375 30.1562C284.734 30.1562 284.229 30.0417 283.859 29.8125C283.49 29.5833 283.19 29.3255 282.961 29.0391H282.797L282.398 30H280.578V17.8438H282.961ZM284.672 23.0078C284.255 23.0078 283.924 23.0938 283.68 23.2656C283.435 23.4375 283.255 23.6953 283.141 24.0391C283.031 24.3828 282.971 24.8177 282.961 25.3438V25.6016C282.961 26.4505 283.086 27.1016 283.336 27.5547C283.586 28.0026 284.042 28.2266 284.703 28.2266C285.193 28.2266 285.581 28 285.867 27.5469C286.159 27.0938 286.305 26.4401 286.305 25.5859C286.305 24.7318 286.159 24.0885 285.867 23.6562C285.576 23.224 285.177 23.0078 284.672 23.0078ZM293.086 30H290.703V17.8438H293.086V30ZM299.195 21.1016C300.003 21.1016 300.698 21.2578 301.281 21.5703C301.865 21.8776 302.315 22.3255 302.633 22.9141C302.951 23.5026 303.109 24.2214 303.109 25.0703V26.2266H297.477C297.503 26.8984 297.703 27.4271 298.078 27.8125C298.458 28.1927 298.984 28.3828 299.656 28.3828C300.214 28.3828 300.724 28.3255 301.188 28.2109C301.651 28.0964 302.128 27.9245 302.617 27.6953V29.5391C302.185 29.7526 301.732 29.9089 301.258 30.0078C300.789 30.1068 300.219 30.1562 299.547 30.1562C298.672 30.1562 297.896 29.9948 297.219 29.6719C296.547 29.349 296.018 28.8568 295.633 28.1953C295.253 27.5339 295.062 26.7005 295.062 25.6953C295.062 24.6745 295.234 23.8255 295.578 23.1484C295.927 22.4661 296.411 21.9557 297.031 21.6172C297.651 21.2734 298.372 21.1016 299.195 21.1016ZM299.211 22.7969C298.747 22.7969 298.362 22.9453 298.055 23.2422C297.753 23.5391 297.578 24.0052 297.531 24.6406H300.875C300.87 24.2865 300.805 23.9714 300.68 23.6953C300.56 23.4193 300.378 23.2005 300.133 23.0391C299.893 22.8776 299.586 22.7969 299.211 22.7969Z" fill="white"/>
</svg>
