<svg width="48" height="48" viewBox="0 0 48 48" fill="none" xmlns="http://www.w3.org/2000/svg">
<path d="M0 8C0 3.58172 3.58172 0 8 0H40C44.4183 0 48 3.58172 48 8V40C48 44.4183 44.4183 48 40 48H8C3.58172 48 0 44.4183 0 40V8Z" fill="#0D67FE"/>
<path d="M33 24C33 25.9006 32.3983 27.7524 31.2812 29.2901C30.164 30.8277 28.5887 31.9722 26.7812 32.5595C24.9736 33.1468 23.0264 33.1468 21.2188 32.5595C19.4113 31.9722 17.836 30.8277 16.7188 29.2901C15.6017 27.7524 15 25.9006 15 24C15 22.0994 15.6017 20.2476 16.7188 18.7099C17.836 17.1723 19.4113 16.0278 21.2188 15.4405C23.0264 14.8532 24.9736 14.8532 26.7812 15.4405" stroke="white" stroke-width="2"/>
</svg>
