<svg width="48" height="48" viewBox="0 0 48 48" fill="none" xmlns="http://www.w3.org/2000/svg">
<path d="M0 8C0 3.58172 3.58172 0 8 0H40C44.4183 0 48 3.58172 48 8V40C48 44.4183 44.4183 48 40 48H8C3.58172 48 0 44.4183 0 40V8Z" fill="#0D67FE"/>
<path d="M0 8C0 3.58172 3.58172 0 8 0H40C44.4183 0 48 3.58172 48 8V40C48 44.4183 44.4183 48 40 48H8C3.58172 48 0 44.4183 0 40V8Z" fill="white" fill-opacity="0.24"/>
<path d="M35 14.3447V21.9309L13 30.8965L35 14.3447Z" fill="#2FE9FF"/>
<path d="M30.875 14V27.1034C30.875 30.9122 27.7968 34 24 34C20.2032 34 17.125 30.9122 17.125 27.1034V21.5862L21.25 19.3103V27.1034C21.25 27.7436 21.5035 28.3576 21.9548 28.8103C22.406 29.2629 23.0181 29.5172 23.6562 29.5172C24.2944 29.5172 24.9065 29.2629 25.3577 28.8103C25.809 28.3576 26.0625 27.7436 26.0625 27.1034V16.6552L30.875 14Z" fill="#FFFCF0"/>
</svg>
